<?xml version="1.0" encoding="utf-8" standalone="no"?>
<!DOCTYPE svg PUBLIC "-//W3C//DTD SVG 1.1//EN"
  "http://www.w3.org/Graphics/SVG/1.1/DTD/svg11.dtd">
<!-- Created with matplotlib (https://matplotlib.org/) -->
<svg height="625.14pt" version="1.1" viewBox="0 0 864.9 625.14" width="864.9pt" xmlns="http://www.w3.org/2000/svg" xmlns:xlink="http://www.w3.org/1999/xlink">
 <defs>
  <style type="text/css">
*{stroke-linecap:butt;stroke-linejoin:round;}
  </style>
 </defs>
 <g id="figure_1">
  <g id="patch_1">
   <path d="M 0 625.14 
L 864.9 625.14 
L 864.9 0 
L 0 0 
z
" style="fill:#ffffff;"/>
  </g>
  <g id="axes_1">
   <g id="patch_2">
    <path clip-path="url(#p1eeac427a4)" d="M 0 625.14 
L 864.9 625.14 
L 864.9 0 
L 0 0 
z
" style="fill:#f2f2f2;stroke:#f2f2f2;stroke-linejoin:miter;"/>
   </g>
   <g id="patch_3">
    <path clip-path="url(#p1eeac427a4)" d="M 0 625.14 
L 864.9 625.14 
L 864.9 0 
L 0 0 
z
" style="fill:#f2f2f2;stroke:#f2f2f2;stroke-linejoin:miter;"/>
   </g>
   <g id="patch_4">
    <path clip-path="url(#p1eeac427a4)" d="M 0 625.14 
L 864.9 625.14 
L 864.9 0 
L 0 0 
z
" style="fill:#f2f2f2;stroke:#f2f2f2;stroke-linejoin:miter;"/>
   </g>
   <g id="patch_5">
    <path clip-path="url(#p1eeac427a4)" d="M 0 625.14 
L 864.9 625.14 
L 864.9 0 
L 0 0 
z
" style="fill:#f2f2f2;stroke:#f2f2f2;stroke-linejoin:miter;"/>
   </g>
   <g id="patch_6">
    <path clip-path="url(#p1eeac427a4)" d="M 0 625.14 
L 864.9 625.14 
L 864.9 0 
L 0 0 
z
" style="fill:#f2f2f2;stroke:#f2f2f2;stroke-linejoin:miter;"/>
   </g>
   <g id="patch_7">
    <path clip-path="url(#p1eeac427a4)" d="M 0 625.14 
L 864.9 625.14 
L 864.9 0 
L 0 0 
z
" style="fill:#f2f2f2;stroke:#f2f2f2;stroke-linejoin:miter;"/>
   </g>
   <g id="patch_8">
    <path clip-path="url(#p1eeac427a4)" d="M 432.45 312.57 
L 292.95 547.9488 
L 571.95 547.9488 
z
" style="fill:#f2f2f2;stroke:#f2f2f2;stroke-linejoin:miter;"/>
   </g>
   <g id="patch_9">
    <path clip-path="url(#p1eeac427a4)" d="M 432.45 312.57 
L 571.95 547.9488 
L 711.45 312.57 
z
" style="fill:#f2f2f2;stroke:#f2f2f2;stroke-linejoin:miter;"/>
   </g>
   <g id="patch_10">
    <path clip-path="url(#p1eeac427a4)" d="M 432.45 312.57 
L 711.45 312.57 
L 571.95 77.1912 
z
" style="fill:#f2f2f2;stroke:#f2f2f2;stroke-linejoin:miter;"/>
   </g>
   <g id="patch_11">
    <path clip-path="url(#p1eeac427a4)" d="M 432.45 312.57 
L 571.95 77.1912 
L 292.95 77.1912 
z
" style="fill:#f2f2f2;stroke:#f2f2f2;stroke-linejoin:miter;"/>
   </g>
   <g id="patch_12">
    <path clip-path="url(#p1eeac427a4)" d="M 432.45 312.57 
L 292.95 77.1912 
L 153.45 312.57 
z
" style="fill:#f2f2f2;stroke:#f2f2f2;stroke-linejoin:miter;"/>
   </g>
   <g id="patch_13">
    <path clip-path="url(#p1eeac427a4)" d="M 432.45 312.57 
L 153.45 312.57 
L 292.95 547.9488 
z
" style="fill:#f2f2f2;stroke:#f2f2f2;stroke-linejoin:miter;"/>
   </g>
   <g id="patch_14">
    <path clip-path="url(#p1eeac427a4)" d="M 432.45 312.57 
L 309.411 520.174102 
L 555.489 520.174102 
z
" style="fill:#4a231c;stroke:#4a231c;stroke-linejoin:miter;"/>
   </g>
   <g id="patch_15">
    <path clip-path="url(#p1eeac427a4)" d="M 432.45 312.57 
L 555.489 520.174102 
L 664.857 312.57 
z
" style="fill:#4a231c;stroke:#4a231c;stroke-linejoin:miter;"/>
   </g>
   <g id="patch_16">
    <path clip-path="url(#p1eeac427a4)" d="M 432.45 312.57 
L 664.857 312.57 
L 541.818 128.033021 
z
" style="fill:#4a231c;stroke:#4a231c;stroke-linejoin:miter;"/>
   </g>
   <g id="patch_17">
    <path clip-path="url(#p1eeac427a4)" d="M 432.45 312.57 
L 541.818 128.033021 
L 323.082 128.033021 
z
" style="fill:#4a231c;stroke:#4a231c;stroke-linejoin:miter;"/>
   </g>
   <g id="patch_18">
    <path clip-path="url(#p1eeac427a4)" d="M 432.45 312.57 
L 323.082 128.033021 
L 241.056 312.57 
z
" style="fill:#4a231c;stroke:#4a231c;stroke-linejoin:miter;"/>
   </g>
   <g id="patch_19">
    <path clip-path="url(#p1eeac427a4)" d="M 432.45 312.57 
L 241.056 312.57 
L 309.411 520.174102 
z
" style="fill:#4a231c;stroke:#4a231c;stroke-linejoin:miter;"/>
   </g>
   <g id="line2d_1">
    <path clip-path="url(#p1eeac427a4)" d="M 432.45 312.57 
L 306.9 524.41092 
" style="fill:none;stroke:#f2f2f2;stroke-linecap:square;stroke-width:1.5;"/>
   </g>
   <g id="line2d_2">
    <path clip-path="url(#p1eeac427a4)" d="M 432.45 312.57 
L 558 524.41092 
" style="fill:none;stroke:#f2f2f2;stroke-linecap:square;stroke-width:1.5;"/>
   </g>
   <g id="line2d_3">
    <path clip-path="url(#p1eeac427a4)" d="M 432.45 312.57 
L 669.6 312.57 
" style="fill:none;stroke:#f2f2f2;stroke-linecap:square;stroke-width:1.5;"/>
   </g>
   <g id="line2d_4">
    <path clip-path="url(#p1eeac427a4)" d="M 432.45 312.57 
L 544.05 124.26696 
" style="fill:none;stroke:#f2f2f2;stroke-linecap:square;stroke-width:1.5;"/>
   </g>
   <g id="line2d_5">
    <path clip-path="url(#p1eeac427a4)" d="M 432.45 312.57 
L 320.85 124.26696 
" style="fill:none;stroke:#f2f2f2;stroke-linecap:square;stroke-width:1.5;"/>
   </g>
   <g id="line2d_6">
    <path clip-path="url(#p1eeac427a4)" d="M 432.45 312.57 
L 237.15 312.57 
" style="fill:none;stroke:#f2f2f2;stroke-linecap:square;stroke-width:1.5;"/>
   </g>
   <g id="text_1">
    <!-- DATA VISUALIZATION -->
    <defs>
     <path d="M 8.984375 0 
L 8.984375 71.09375 
L 28.859375 71.09375 
Q 37.59375 71.09375 44.53125 67.109375 
Q 51.46875 63.140625 55.34375 55.71875 
Q 59.234375 48.296875 59.234375 38.8125 
L 59.234375 32.28125 
Q 59.234375 22.75 55.375 15.375 
Q 51.515625 8.015625 44.5 4 
Q 37.5 0 28.421875 0 
z
M 14.984375 65.96875 
L 14.984375 5.078125 
L 28.46875 5.078125 
Q 39.703125 5.078125 46.484375 12.515625 
Q 53.265625 19.96875 53.265625 32.671875 
L 53.265625 38.921875 
Q 53.265625 51.171875 46.578125 58.546875 
Q 39.890625 65.921875 28.953125 65.96875 
z
" id="Roboto-Light-68"/>
     <path d="M 47.359375 19.921875 
L 15.09375 19.921875 
L 7.765625 0 
L 1.46875 0 
L 28.375 71.09375 
L 34.078125 71.09375 
L 60.984375 0 
L 54.734375 0 
z
M 16.9375 25.046875 
L 45.453125 25.046875 
L 31.203125 63.765625 
z
" id="Roboto-Light-65"/>
     <path d="M 57.234375 65.96875 
L 32.859375 65.96875 
L 32.859375 0 
L 26.859375 0 
L 26.859375 65.96875 
L 2.546875 65.96875 
L 2.546875 71.09375 
L 57.234375 71.09375 
z
" id="Roboto-Light-84"/>
     <path id="Roboto-Light-32"/>
     <path d="M 30.421875 8.796875 
L 30.8125 7.28125 
L 31.25 8.796875 
L 53.609375 71.09375 
L 60.203125 71.09375 
L 33.734375 0 
L 27.984375 0 
L 1.515625 71.09375 
L 8.0625 71.09375 
z
" id="Roboto-Light-86"/>
     <path d="M 16.3125 0 
L 10.296875 0 
L 10.296875 71.09375 
L 16.3125 71.09375 
z
" id="Roboto-Light-73"/>
     <path d="M 49.21875 17.484375 
Q 49.21875 23.390625 45.0625 26.828125 
Q 40.921875 30.28125 29.875 33.375 
Q 18.84375 36.46875 13.765625 40.140625 
Q 6.546875 45.3125 6.546875 53.71875 
Q 6.546875 61.859375 13.25 66.96875 
Q 19.96875 72.078125 30.421875 72.078125 
Q 37.5 72.078125 43.09375 69.34375 
Q 48.6875 66.609375 51.75 61.71875 
Q 54.828125 56.84375 54.828125 50.828125 
L 48.78125 50.828125 
Q 48.78125 58.109375 43.796875 62.515625 
Q 38.8125 66.9375 30.421875 66.9375 
Q 22.265625 66.9375 17.421875 63.296875 
Q 12.59375 59.671875 12.59375 53.8125 
Q 12.59375 48.390625 16.9375 44.96875 
Q 21.296875 41.546875 30.859375 38.9375 
Q 40.4375 36.328125 45.359375 33.515625 
Q 50.296875 30.71875 52.78125 26.8125 
Q 55.28125 22.90625 55.28125 17.578125 
Q 55.28125 9.1875 48.5625 4.09375 
Q 41.84375 -0.984375 30.859375 -0.984375 
Q 23.34375 -0.984375 17.0625 1.703125 
Q 10.796875 4.390625 7.546875 9.21875 
Q 4.296875 14.0625 4.296875 20.3125 
L 10.296875 20.3125 
Q 10.296875 12.796875 15.90625 8.453125 
Q 21.53125 4.109375 30.859375 4.109375 
Q 39.15625 4.109375 44.1875 7.765625 
Q 49.21875 11.421875 49.21875 17.484375 
z
" id="Roboto-Light-83"/>
     <path d="M 57.953125 71.09375 
L 57.953125 22.5625 
Q 57.90625 15.375 54.78125 10.046875 
Q 51.65625 4.734375 45.96875 1.875 
Q 40.28125 -0.984375 32.90625 -0.984375 
Q 21.6875 -0.984375 14.921875 5.140625 
Q 8.15625 11.28125 7.90625 22.125 
L 7.90625 71.09375 
L 13.875 71.09375 
L 13.875 23 
Q 13.875 14.015625 19 9.0625 
Q 24.125 4.109375 32.90625 4.109375 
Q 41.703125 4.109375 46.796875 9.078125 
Q 51.90625 14.0625 51.90625 22.953125 
L 51.90625 71.09375 
z
" id="Roboto-Light-85"/>
     <path d="M 15.046875 5.078125 
L 50.140625 5.078125 
L 50.140625 0 
L 8.984375 0 
L 8.984375 71.09375 
L 15.046875 71.09375 
z
" id="Roboto-Light-76"/>
     <path d="M 11.671875 5.078125 
L 55.5625 5.078125 
L 55.5625 0 
L 4.390625 0 
L 4.390625 4.546875 
L 46.578125 65.96875 
L 5.671875 65.96875 
L 5.671875 71.09375 
L 54 71.09375 
L 54 66.796875 
z
" id="Roboto-Light-90"/>
     <path d="M 61.53125 31.6875 
Q 61.53125 21.875 58.125 14.453125 
Q 54.734375 7.03125 48.4375 3.015625 
Q 42.140625 -0.984375 33.890625 -0.984375 
Q 21.4375 -0.984375 13.765625 7.921875 
Q 6.109375 16.84375 6.109375 31.984375 
L 6.109375 39.3125 
Q 6.109375 49.03125 9.546875 56.515625 
Q 12.984375 64.015625 19.28125 68.046875 
Q 25.59375 72.078125 33.796875 72.078125 
Q 42 72.078125 48.265625 68.109375 
Q 54.546875 64.15625 57.953125 56.921875 
Q 61.375 49.703125 61.53125 40.1875 
z
M 55.515625 39.40625 
Q 55.515625 52.25 49.703125 59.515625 
Q 43.890625 66.796875 33.796875 66.796875 
Q 23.875 66.796875 17.984375 59.5 
Q 12.109375 52.203125 12.109375 39.109375 
L 12.109375 31.6875 
Q 12.109375 19.046875 17.96875 11.640625 
Q 23.828125 4.25 33.890625 4.25 
Q 44.09375 4.25 49.796875 11.546875 
Q 55.515625 18.84375 55.515625 31.890625 
z
" id="Roboto-Light-79"/>
     <path d="M 61.921875 0 
L 55.90625 0 
L 15.046875 60.84375 
L 15.046875 0 
L 8.984375 0 
L 8.984375 71.09375 
L 15.046875 71.09375 
L 55.953125 10.203125 
L 55.953125 71.09375 
L 61.921875 71.09375 
z
" id="Roboto-Light-78"/>
    </defs>
    <g transform="translate(163.192654 572.163418)scale(0.26 -0.26)">
     <use xlink:href="#Roboto-Light-68"/>
     <use x="65.478516" xlink:href="#Roboto-Light-65"/>
     <use x="127.929688" xlink:href="#Roboto-Light-84"/>
     <use x="187.646484" xlink:href="#Roboto-Light-65"/>
     <use x="250.097656" xlink:href="#Roboto-Light-32"/>
     <use x="274.414062" xlink:href="#Roboto-Light-86"/>
     <use x="336.083984" xlink:href="#Roboto-Light-73"/>
     <use x="362.695312" xlink:href="#Roboto-Light-83"/>
     <use x="421.923828" xlink:href="#Roboto-Light-85"/>
     <use x="487.646484" xlink:href="#Roboto-Light-65"/>
     <use x="550.097656" xlink:href="#Roboto-Light-76"/>
     <use x="602.783203" xlink:href="#Roboto-Light-73"/>
     <use x="629.394531" xlink:href="#Roboto-Light-90"/>
     <use x="689.208984" xlink:href="#Roboto-Light-65"/>
     <use x="751.660156" xlink:href="#Roboto-Light-84"/>
     <use x="811.376953" xlink:href="#Roboto-Light-73"/>
     <use x="837.988281" xlink:href="#Roboto-Light-79"/>
     <use x="905.664062" xlink:href="#Roboto-Light-78"/>
    </g>
   </g>
   <g id="text_2">
    <!-- DEEP LEARNING -->
    <defs>
     <path d="M 48.25 34.078125 
L 14.984375 34.078125 
L 14.984375 5.078125 
L 53.21875 5.078125 
L 53.21875 0 
L 8.984375 0 
L 8.984375 71.09375 
L 52.984375 71.09375 
L 52.984375 65.96875 
L 14.984375 65.96875 
L 14.984375 39.15625 
L 48.25 39.15625 
z
" id="Roboto-Light-69"/>
     <path d="M 14.984375 28.953125 
L 14.984375 0 
L 8.984375 0 
L 8.984375 71.09375 
L 33.203125 71.09375 
Q 44.28125 71.09375 50.703125 65.421875 
Q 57.125 59.765625 57.125 49.859375 
Q 57.125 39.84375 50.953125 34.390625 
Q 44.78125 28.953125 33.0625 28.953125 
z
M 14.984375 34.03125 
L 33.203125 34.03125 
Q 41.9375 34.03125 46.53125 38.171875 
Q 51.125 42.328125 51.125 49.75 
Q 51.125 57.125 46.5625 61.5 
Q 42 65.875 33.59375 65.96875 
L 14.984375 65.96875 
z
" id="Roboto-Light-80"/>
     <path d="M 35.546875 29.59375 
L 14.890625 29.59375 
L 14.890625 0 
L 8.84375 0 
L 8.84375 71.09375 
L 31.9375 71.09375 
Q 43.3125 71.09375 49.703125 65.578125 
Q 56.109375 60.0625 56.109375 50.140625 
Q 56.109375 43.3125 52.09375 38.078125 
Q 48.09375 32.859375 41.359375 30.859375 
L 59.125 0.640625 
L 59.125 0 
L 52.734375 0 
z
M 14.890625 34.71875 
L 33.296875 34.71875 
Q 40.875 34.71875 45.453125 39.015625 
Q 50.046875 43.3125 50.046875 50.140625 
Q 50.046875 57.671875 45.265625 61.8125 
Q 40.484375 65.96875 31.84375 65.96875 
L 14.890625 65.96875 
z
" id="Roboto-Light-82"/>
     <path d="M 60.296875 8.453125 
Q 57.171875 4 50.5 1.5 
Q 43.84375 -0.984375 35.59375 -0.984375 
Q 27.25 -0.984375 20.75 3.015625 
Q 14.265625 7.03125 10.6875 14.359375 
Q 7.125 21.6875 7.078125 31.15625 
L 7.078125 40.140625 
Q 7.078125 54.9375 14.546875 63.5 
Q 22.015625 72.078125 34.625 72.078125 
Q 45.609375 72.078125 52.296875 66.484375 
Q 58.984375 60.890625 60.25 51.078125 
L 54.25 51.078125 
Q 52.9375 58.890625 47.875 62.90625 
Q 42.828125 66.9375 34.671875 66.9375 
Q 24.703125 66.9375 18.890625 59.859375 
Q 13.09375 52.78125 13.09375 39.890625 
L 13.09375 31.5 
Q 13.09375 23.390625 15.84375 17.15625 
Q 18.609375 10.9375 23.75 7.515625 
Q 28.90625 4.109375 35.59375 4.109375 
Q 43.359375 4.109375 48.921875 6.546875 
Q 52.546875 8.15625 54.296875 10.296875 
L 54.296875 28.65625 
L 35.203125 28.65625 
L 35.203125 33.734375 
L 60.296875 33.734375 
z
" id="Roboto-Light-71"/>
    </defs>
    <g transform="translate(478.846717 572.16342)scale(0.26 -0.26)">
     <use xlink:href="#Roboto-Light-68"/>
     <use x="65.478516" xlink:href="#Roboto-Light-69"/>
     <use x="122.363281" xlink:href="#Roboto-Light-69"/>
     <use x="179.248047" xlink:href="#Roboto-Light-80"/>
     <use x="240.820312" xlink:href="#Roboto-Light-32"/>
     <use x="265.136719" xlink:href="#Roboto-Light-76"/>
     <use x="317.822266" xlink:href="#Roboto-Light-69"/>
     <use x="374.707031" xlink:href="#Roboto-Light-65"/>
     <use x="437.158203" xlink:href="#Roboto-Light-82"/>
     <use x="500.634766" xlink:href="#Roboto-Light-78"/>
     <use x="571.630859" xlink:href="#Roboto-Light-73"/>
     <use x="598.242188" xlink:href="#Roboto-Light-78"/>
     <use x="669.238281" xlink:href="#Roboto-Light-71"/>
    </g>
   </g>
   <g id="text_3">
    <!-- BAYESIAN -->
    <defs>
     <path d="M 8.984375 0 
L 8.984375 71.09375 
L 29.984375 71.09375 
Q 41.40625 71.09375 47.3125 66.375 
Q 53.21875 61.671875 53.21875 52.484375 
Q 53.21875 46.96875 50.21875 42.890625 
Q 47.21875 38.8125 42 37.0625 
Q 48.1875 35.6875 51.96875 30.953125 
Q 55.765625 26.21875 55.765625 20.015625 
Q 55.765625 10.59375 49.6875 5.296875 
Q 43.609375 0 32.765625 0 
z
M 14.984375 34.1875 
L 14.984375 5.078125 
L 33.015625 5.078125 
Q 40.71875 5.078125 45.234375 9 
Q 49.75 12.9375 49.75 19.921875 
Q 49.75 26.515625 45.421875 30.34375 
Q 41.109375 34.1875 33.5 34.1875 
z
M 14.984375 39.203125 
L 31.390625 39.203125 
Q 38.921875 39.359375 43.046875 42.75 
Q 47.171875 46.140625 47.171875 52.640625 
Q 47.171875 59.46875 42.890625 62.71875 
Q 38.625 65.96875 29.984375 65.96875 
L 14.984375 65.96875 
z
" id="Roboto-Light-66"/>
     <path d="M 29.828125 32.328125 
L 51.5625 71.09375 
L 58.5 71.09375 
L 32.8125 26.765625 
L 32.8125 0 
L 26.8125 0 
L 26.8125 26.765625 
L 1.171875 71.09375 
L 8.296875 71.09375 
z
" id="Roboto-Light-89"/>
    </defs>
    <g transform="translate(717.03 305.338752)scale(0.26 -0.26)">
     <use xlink:href="#Roboto-Light-66"/>
     <use x="61.279297" xlink:href="#Roboto-Light-65"/>
     <use x="123.730469" xlink:href="#Roboto-Light-89"/>
     <use x="183.59375" xlink:href="#Roboto-Light-69"/>
     <use x="240.478516" xlink:href="#Roboto-Light-83"/>
     <use x="299.707031" xlink:href="#Roboto-Light-73"/>
     <use x="326.318359" xlink:href="#Roboto-Light-65"/>
     <use x="388.769531" xlink:href="#Roboto-Light-78"/>
    </g>
    <!-- STATISTICS -->
    <defs>
     <path d="M 59.328125 22.171875 
Q 58.109375 10.9375 51.296875 4.96875 
Q 44.484375 -0.984375 33.15625 -0.984375 
Q 25.25 -0.984375 19.171875 2.96875 
Q 13.09375 6.9375 9.765625 14.1875 
Q 6.453125 21.4375 6.390625 30.765625 
L 6.390625 39.984375 
Q 6.390625 49.46875 9.703125 56.78125 
Q 13.03125 64.109375 19.25 68.09375 
Q 25.484375 72.078125 33.59375 72.078125 
Q 45.015625 72.078125 51.625 65.890625 
Q 58.25 59.71875 59.328125 48.828125 
L 53.265625 48.828125 
Q 51.03125 66.9375 33.59375 66.9375 
Q 23.921875 66.9375 18.1875 59.703125 
Q 12.453125 52.484375 12.453125 39.75 
L 12.453125 31.0625 
Q 12.453125 18.75 18.046875 11.421875 
Q 23.640625 4.109375 33.15625 4.109375 
Q 42.578125 4.109375 47.359375 8.625 
Q 52.15625 13.140625 53.265625 22.171875 
z
" id="Roboto-Light-67"/>
    </defs>
    <g transform="translate(717.03 334.020002)scale(0.26 -0.26)">
     <use xlink:href="#Roboto-Light-83"/>
     <use x="59.228516" xlink:href="#Roboto-Light-84"/>
     <use x="118.945312" xlink:href="#Roboto-Light-65"/>
     <use x="181.396484" xlink:href="#Roboto-Light-84"/>
     <use x="241.113281" xlink:href="#Roboto-Light-73"/>
     <use x="267.724609" xlink:href="#Roboto-Light-83"/>
     <use x="326.953125" xlink:href="#Roboto-Light-84"/>
     <use x="386.669922" xlink:href="#Roboto-Light-73"/>
     <use x="413.28125" xlink:href="#Roboto-Light-67"/>
     <use x="478.222656" xlink:href="#Roboto-Light-83"/>
    </g>
   </g>
   <g id="text_4">
    <!-- COMPUTERS -->
    <defs>
     <path d="M 16.9375 71.09375 
L 43.171875 8.34375 
L 69.484375 71.09375 
L 77.484375 71.09375 
L 77.484375 0 
L 71.484375 0 
L 71.484375 30.953125 
L 71.96875 62.703125 
L 45.515625 0 
L 40.875 0 
L 14.5 62.453125 
L 14.984375 31.15625 
L 14.984375 0 
L 8.984375 0 
L 8.984375 71.09375 
z
" id="Roboto-Light-77"/>
    </defs>
    <g transform="translate(498.590471 67.195332)scale(0.26 -0.26)">
     <use xlink:href="#Roboto-Light-67"/>
     <use x="64.941406" xlink:href="#Roboto-Light-79"/>
     <use x="132.617188" xlink:href="#Roboto-Light-77"/>
     <use x="219.140625" xlink:href="#Roboto-Light-80"/>
     <use x="280.712891" xlink:href="#Roboto-Light-85"/>
     <use x="346.435547" xlink:href="#Roboto-Light-84"/>
     <use x="406.152344" xlink:href="#Roboto-Light-69"/>
     <use x="463.037109" xlink:href="#Roboto-Light-82"/>
     <use x="526.513672" xlink:href="#Roboto-Light-83"/>
    </g>
   </g>
   <g id="text_5">
    <!-- ALGORITHMS -->
    <defs>
     <path d="M 61.671875 0 
L 55.609375 0 
L 55.609375 34.078125 
L 14.984375 34.078125 
L 14.984375 0 
L 8.984375 0 
L 8.984375 71.09375 
L 14.984375 71.09375 
L 14.984375 39.15625 
L 55.609375 39.15625 
L 55.609375 71.09375 
L 61.671875 71.09375 
z
" id="Roboto-Light-72"/>
    </defs>
    <g transform="translate(209.885002 67.19533)scale(0.26 -0.26)">
     <use xlink:href="#Roboto-Light-65"/>
     <use x="62.451172" xlink:href="#Roboto-Light-76"/>
     <use x="115.136719" xlink:href="#Roboto-Light-71"/>
     <use x="183.496094" xlink:href="#Roboto-Light-79"/>
     <use x="251.171875" xlink:href="#Roboto-Light-82"/>
     <use x="314.648438" xlink:href="#Roboto-Light-73"/>
     <use x="341.259766" xlink:href="#Roboto-Light-84"/>
     <use x="400.976562" xlink:href="#Roboto-Light-72"/>
     <use x="471.728516" xlink:href="#Roboto-Light-77"/>
     <use x="558.251953" xlink:href="#Roboto-Light-83"/>
    </g>
   </g>
   <g id="text_6">
    <!-- MACHINE  -->
    <g transform="translate(27.364063 305.338748)scale(0.26 -0.26)">
     <use xlink:href="#Roboto-Light-77"/>
     <use x="86.523438" xlink:href="#Roboto-Light-65"/>
     <use x="148.974609" xlink:href="#Roboto-Light-67"/>
     <use x="213.916016" xlink:href="#Roboto-Light-72"/>
     <use x="284.667969" xlink:href="#Roboto-Light-73"/>
     <use x="311.279297" xlink:href="#Roboto-Light-78"/>
     <use x="382.275391" xlink:href="#Roboto-Light-69"/>
     <use x="439.160156" xlink:href="#Roboto-Light-32"/>
    </g>
    <!-- LEARNING -->
    <g transform="translate(25.024062 334.019998)scale(0.26 -0.26)">
     <use xlink:href="#Roboto-Light-76"/>
     <use x="52.685547" xlink:href="#Roboto-Light-69"/>
     <use x="109.570312" xlink:href="#Roboto-Light-65"/>
     <use x="172.021484" xlink:href="#Roboto-Light-82"/>
     <use x="235.498047" xlink:href="#Roboto-Light-78"/>
     <use x="306.494141" xlink:href="#Roboto-Light-73"/>
     <use x="333.105469" xlink:href="#Roboto-Light-78"/>
     <use x="404.101562" xlink:href="#Roboto-Light-71"/>
    </g>
   </g>
   <g id="line2d_7">
    <path clip-path="url(#p1eeac427a4)" d="M 292.95 547.9488 
L 571.95 547.9488 
" style="fill:none;stroke:#000000;stroke-linecap:square;stroke-linejoin:miter;stroke-width:1.5;"/>
   </g>
   <g id="line2d_8">
    <path clip-path="url(#p1eeac427a4)" d="M 571.95 547.9488 
L 711.45 312.57 
" style="fill:none;stroke:#000000;stroke-linecap:square;stroke-linejoin:miter;stroke-width:1.5;"/>
   </g>
   <g id="line2d_9">
    <path clip-path="url(#p1eeac427a4)" d="M 711.45 312.57 
L 571.95 77.1912 
" style="fill:none;stroke:#000000;stroke-linecap:square;stroke-linejoin:miter;stroke-width:1.5;"/>
   </g>
   <g id="line2d_10">
    <path clip-path="url(#p1eeac427a4)" d="M 571.95 77.1912 
L 292.95 77.1912 
" style="fill:none;stroke:#000000;stroke-linecap:square;stroke-linejoin:miter;stroke-width:1.5;"/>
   </g>
   <g id="line2d_11">
    <path clip-path="url(#p1eeac427a4)" d="M 292.95 77.1912 
L 153.45 312.57 
" style="fill:none;stroke:#000000;stroke-linecap:square;stroke-linejoin:miter;stroke-width:1.5;"/>
   </g>
   <g id="line2d_12">
    <path clip-path="url(#p1eeac427a4)" d="M 153.45 312.57 
L 292.95 547.9488 
" style="fill:none;stroke:#000000;stroke-linecap:square;stroke-linejoin:miter;stroke-width:1.5;"/>
   </g>
  </g>
 </g>
 <defs>
  <clipPath id="p1eeac427a4">
   <rect height="625.14" width="864.9" x="0" y="0"/>
  </clipPath>
 </defs>
</svg>
