<?xml version="1.0" encoding="utf-8" standalone="no"?>
<!DOCTYPE svg PUBLIC "-//W3C//DTD SVG 1.1//EN"
  "http://www.w3.org/Graphics/SVG/1.1/DTD/svg11.dtd">
<!-- Created with matplotlib (https://matplotlib.org/) -->
<svg height="597.96pt" version="1.1" viewBox="0 0 781.2 597.96" width="781.2pt" xmlns="http://www.w3.org/2000/svg" xmlns:xlink="http://www.w3.org/1999/xlink">
 <defs>
  <style type="text/css">
*{stroke-linecap:butt;stroke-linejoin:round;}
  </style>
 </defs>
 <g id="figure_1">
  <g id="patch_1">
   <path d="M 0 597.96 
L 781.2 597.96 
L 781.2 0 
L 0 0 
z
" style="fill:#ffffff;"/>
  </g>
  <g id="axes_1">
   <g id="patch_2">
    <path clip-path="url(#pe2e34ceb96)" d="M 0 597.96 
L 781.2 597.96 
L 781.2 0 
L 0 0 
z
" style="fill:#f2f2f2;stroke:#f2f2f2;stroke-linejoin:miter;"/>
   </g>
   <g id="patch_3">
    <path clip-path="url(#pe2e34ceb96)" d="M 0 597.96 
L 781.2 597.96 
L 781.2 0 
L 0 0 
z
" style="fill:#f2f2f2;stroke:#f2f2f2;stroke-linejoin:miter;"/>
   </g>
   <g id="patch_4">
    <path clip-path="url(#pe2e34ceb96)" d="M 0 597.96 
L 781.2 597.96 
L 781.2 0 
L 0 0 
z
" style="fill:#f2f2f2;stroke:#f2f2f2;stroke-linejoin:miter;"/>
   </g>
   <g id="patch_5">
    <path clip-path="url(#pe2e34ceb96)" d="M 0 597.96 
L 781.2 597.96 
L 781.2 0 
L 0 0 
z
" style="fill:#f2f2f2;stroke:#f2f2f2;stroke-linejoin:miter;"/>
   </g>
   <g id="patch_6">
    <path clip-path="url(#pe2e34ceb96)" d="M 0 597.96 
L 781.2 597.96 
L 781.2 0 
L 0 0 
z
" style="fill:#f2f2f2;stroke:#f2f2f2;stroke-linejoin:miter;"/>
   </g>
   <g id="patch_7">
    <path clip-path="url(#pe2e34ceb96)" d="M 0 597.96 
L 781.2 597.96 
L 781.2 0 
L 0 0 
z
" style="fill:#f2f2f2;stroke:#f2f2f2;stroke-linejoin:miter;"/>
   </g>
   <g id="patch_8">
    <path clip-path="url(#pe2e34ceb96)" d="M 390.6 298.98 
L 251.1 534.3588 
L 530.1 534.3588 
z
" style="fill:#f2f2f2;stroke:#f2f2f2;stroke-linejoin:miter;"/>
   </g>
   <g id="patch_9">
    <path clip-path="url(#pe2e34ceb96)" d="M 390.6 298.98 
L 530.1 534.3588 
L 669.6 298.98 
z
" style="fill:#f2f2f2;stroke:#f2f2f2;stroke-linejoin:miter;"/>
   </g>
   <g id="patch_10">
    <path clip-path="url(#pe2e34ceb96)" d="M 390.6 298.98 
L 669.6 298.98 
L 530.1 63.6012 
z
" style="fill:#f2f2f2;stroke:#f2f2f2;stroke-linejoin:miter;"/>
   </g>
   <g id="patch_11">
    <path clip-path="url(#pe2e34ceb96)" d="M 390.6 298.98 
L 530.1 63.6012 
L 251.1 63.6012 
z
" style="fill:#f2f2f2;stroke:#f2f2f2;stroke-linejoin:miter;"/>
   </g>
   <g id="patch_12">
    <path clip-path="url(#pe2e34ceb96)" d="M 390.6 298.98 
L 251.1 63.6012 
L 111.6 298.98 
z
" style="fill:#f2f2f2;stroke:#f2f2f2;stroke-linejoin:miter;"/>
   </g>
   <g id="patch_13">
    <path clip-path="url(#pe2e34ceb96)" d="M 390.6 298.98 
L 111.6 298.98 
L 251.1 534.3588 
z
" style="fill:#f2f2f2;stroke:#f2f2f2;stroke-linejoin:miter;"/>
   </g>
   <g id="patch_14">
    <path clip-path="url(#pe2e34ceb96)" d="M 390.6 298.98 
L 267.561 506.584102 
L 438.4485 379.714928 
z
" style="fill:#3c4a1c;stroke:#3c4a1c;stroke-linejoin:miter;"/>
   </g>
   <g id="patch_15">
    <path clip-path="url(#pe2e34ceb96)" d="M 390.6 298.98 
L 438.4485 379.714928 
L 458.955 298.98 
z
" style="fill:#3c4a1c;stroke:#3c4a1c;stroke-linejoin:miter;"/>
   </g>
   <g id="patch_16">
    <path clip-path="url(#pe2e34ceb96)" d="M 390.6 298.98 
L 458.955 298.98 
L 431.613 229.778633 
z
" style="fill:#3c4a1c;stroke:#3c4a1c;stroke-linejoin:miter;"/>
   </g>
   <g id="patch_17">
    <path clip-path="url(#pe2e34ceb96)" d="M 390.6 298.98 
L 431.613 229.778633 
L 308.574 160.577266 
z
" style="fill:#3c4a1c;stroke:#3c4a1c;stroke-linejoin:miter;"/>
   </g>
   <g id="patch_18">
    <path clip-path="url(#pe2e34ceb96)" d="M 390.6 298.98 
L 308.574 160.577266 
L 322.245 298.98 
z
" style="fill:#3c4a1c;stroke:#3c4a1c;stroke-linejoin:miter;"/>
   </g>
   <g id="patch_19">
    <path clip-path="url(#pe2e34ceb96)" d="M 390.6 298.98 
L 322.245 298.98 
L 267.561 506.584102 
z
" style="fill:#3c4a1c;stroke:#3c4a1c;stroke-linejoin:miter;"/>
   </g>
   <g id="line2d_1">
    <path clip-path="url(#pe2e34ceb96)" d="M 390.6 298.98 
L 265.05 510.82092 
" style="fill:none;stroke:#f2f2f2;stroke-linecap:square;stroke-width:1.5;"/>
   </g>
   <g id="line2d_2">
    <path clip-path="url(#pe2e34ceb96)" d="M 390.6 298.98 
L 439.425 381.36258 
" style="fill:none;stroke:#f2f2f2;stroke-linecap:square;stroke-width:1.5;"/>
   </g>
   <g id="line2d_3">
    <path clip-path="url(#pe2e34ceb96)" d="M 390.6 298.98 
L 460.35 298.98 
" style="fill:none;stroke:#f2f2f2;stroke-linecap:square;stroke-width:1.5;"/>
   </g>
   <g id="line2d_4">
    <path clip-path="url(#pe2e34ceb96)" d="M 390.6 298.98 
L 432.45 228.36636 
" style="fill:none;stroke:#f2f2f2;stroke-linecap:square;stroke-width:1.5;"/>
   </g>
   <g id="line2d_5">
    <path clip-path="url(#pe2e34ceb96)" d="M 390.6 298.98 
L 306.9 157.75272 
" style="fill:none;stroke:#f2f2f2;stroke-linecap:square;stroke-width:1.5;"/>
   </g>
   <g id="line2d_6">
    <path clip-path="url(#pe2e34ceb96)" d="M 390.6 298.98 
L 320.85 298.98 
" style="fill:none;stroke:#f2f2f2;stroke-linecap:square;stroke-width:1.5;"/>
   </g>
   <g id="text_1">
    <!-- PYTHON -->
    <defs>
     <path d="M 14.984375 28.953125 
L 14.984375 0 
L 8.984375 0 
L 8.984375 71.09375 
L 33.203125 71.09375 
Q 44.28125 71.09375 50.703125 65.421875 
Q 57.125 59.765625 57.125 49.859375 
Q 57.125 39.84375 50.953125 34.390625 
Q 44.78125 28.953125 33.0625 28.953125 
z
M 14.984375 34.03125 
L 33.203125 34.03125 
Q 41.9375 34.03125 46.53125 38.171875 
Q 51.125 42.328125 51.125 49.75 
Q 51.125 57.125 46.5625 61.5 
Q 42 65.875 33.59375 65.96875 
L 14.984375 65.96875 
z
" id="Roboto-Light-80"/>
     <path d="M 29.828125 32.328125 
L 51.5625 71.09375 
L 58.5 71.09375 
L 32.8125 26.765625 
L 32.8125 0 
L 26.8125 0 
L 26.8125 26.765625 
L 1.171875 71.09375 
L 8.296875 71.09375 
z
" id="Roboto-Light-89"/>
     <path d="M 57.234375 65.96875 
L 32.859375 65.96875 
L 32.859375 0 
L 26.859375 0 
L 26.859375 65.96875 
L 2.546875 65.96875 
L 2.546875 71.09375 
L 57.234375 71.09375 
z
" id="Roboto-Light-84"/>
     <path d="M 61.671875 0 
L 55.609375 0 
L 55.609375 34.078125 
L 14.984375 34.078125 
L 14.984375 0 
L 8.984375 0 
L 8.984375 71.09375 
L 14.984375 71.09375 
L 14.984375 39.15625 
L 55.609375 39.15625 
L 55.609375 71.09375 
L 61.671875 71.09375 
z
" id="Roboto-Light-72"/>
     <path d="M 61.53125 31.6875 
Q 61.53125 21.875 58.125 14.453125 
Q 54.734375 7.03125 48.4375 3.015625 
Q 42.140625 -0.984375 33.890625 -0.984375 
Q 21.4375 -0.984375 13.765625 7.921875 
Q 6.109375 16.84375 6.109375 31.984375 
L 6.109375 39.3125 
Q 6.109375 49.03125 9.546875 56.515625 
Q 12.984375 64.015625 19.28125 68.046875 
Q 25.59375 72.078125 33.796875 72.078125 
Q 42 72.078125 48.265625 68.109375 
Q 54.546875 64.15625 57.953125 56.921875 
Q 61.375 49.703125 61.53125 40.1875 
z
M 55.515625 39.40625 
Q 55.515625 52.25 49.703125 59.515625 
Q 43.890625 66.796875 33.796875 66.796875 
Q 23.875 66.796875 17.984375 59.5 
Q 12.109375 52.203125 12.109375 39.109375 
L 12.109375 31.6875 
Q 12.109375 19.046875 17.96875 11.640625 
Q 23.828125 4.25 33.890625 4.25 
Q 44.09375 4.25 49.796875 11.546875 
Q 55.515625 18.84375 55.515625 31.890625 
z
" id="Roboto-Light-79"/>
     <path d="M 61.921875 0 
L 55.90625 0 
L 15.046875 60.84375 
L 15.046875 0 
L 8.984375 0 
L 8.984375 71.09375 
L 15.046875 71.09375 
L 55.953125 10.203125 
L 55.953125 71.09375 
L 61.921875 71.09375 
z
" id="Roboto-Light-78"/>
    </defs>
    <g transform="translate(197.534842 558.573418)scale(0.26 -0.26)">
     <use xlink:href="#Roboto-Light-80"/>
     <use x="61.572266" xlink:href="#Roboto-Light-89"/>
     <use x="121.435547" xlink:href="#Roboto-Light-84"/>
     <use x="181.152344" xlink:href="#Roboto-Light-72"/>
     <use x="251.904297" xlink:href="#Roboto-Light-79"/>
     <use x="319.580078" xlink:href="#Roboto-Light-78"/>
    </g>
   </g>
   <g id="text_2">
    <!-- SQL -->
    <defs>
     <path d="M 49.21875 17.484375 
Q 49.21875 23.390625 45.0625 26.828125 
Q 40.921875 30.28125 29.875 33.375 
Q 18.84375 36.46875 13.765625 40.140625 
Q 6.546875 45.3125 6.546875 53.71875 
Q 6.546875 61.859375 13.25 66.96875 
Q 19.96875 72.078125 30.421875 72.078125 
Q 37.5 72.078125 43.09375 69.34375 
Q 48.6875 66.609375 51.75 61.71875 
Q 54.828125 56.84375 54.828125 50.828125 
L 48.78125 50.828125 
Q 48.78125 58.109375 43.796875 62.515625 
Q 38.8125 66.9375 30.421875 66.9375 
Q 22.265625 66.9375 17.421875 63.296875 
Q 12.59375 59.671875 12.59375 53.8125 
Q 12.59375 48.390625 16.9375 44.96875 
Q 21.296875 41.546875 30.859375 38.9375 
Q 40.4375 36.328125 45.359375 33.515625 
Q 50.296875 30.71875 52.78125 26.8125 
Q 55.28125 22.90625 55.28125 17.578125 
Q 55.28125 9.1875 48.5625 4.09375 
Q 41.84375 -0.984375 30.859375 -0.984375 
Q 23.34375 -0.984375 17.0625 1.703125 
Q 10.796875 4.390625 7.546875 9.21875 
Q 4.296875 14.0625 4.296875 20.3125 
L 10.296875 20.3125 
Q 10.296875 12.796875 15.90625 8.453125 
Q 21.53125 4.109375 30.859375 4.109375 
Q 39.15625 4.109375 44.1875 7.765625 
Q 49.21875 11.421875 49.21875 17.484375 
z
" id="Roboto-Light-83"/>
     <path d="M 61.328125 31.6875 
Q 61.328125 21.53125 57.734375 13.984375 
Q 54.15625 6.453125 47.515625 2.59375 
L 60.453125 -8.6875 
L 56.296875 -12.40625 
L 41.796875 0.140625 
Q 37.796875 -0.984375 33.640625 -0.984375 
Q 25.53125 -0.984375 19.203125 3.015625 
Q 12.890625 7.03125 9.421875 14.375 
Q 5.953125 21.734375 5.90625 31.34375 
L 5.90625 39.3125 
Q 5.90625 49.03125 9.34375 56.515625 
Q 12.796875 64.015625 19.09375 68.046875 
Q 25.390625 72.078125 33.546875 72.078125 
Q 41.84375 72.078125 48.140625 68.0625 
Q 54.4375 64.0625 57.875 56.59375 
Q 61.328125 49.125 61.328125 39.359375 
z
M 55.328125 39.40625 
Q 55.328125 52.25 49.515625 59.515625 
Q 43.703125 66.796875 33.546875 66.796875 
Q 23.6875 66.796875 17.796875 59.5 
Q 11.921875 52.203125 11.921875 39.109375 
L 11.921875 31.6875 
Q 11.921875 19.046875 17.75 11.640625 
Q 23.578125 4.25 33.640625 4.25 
Q 43.796875 4.25 49.5625 11.515625 
Q 55.328125 18.796875 55.328125 31.84375 
z
" id="Roboto-Light-81"/>
     <path d="M 15.046875 5.078125 
L 50.140625 5.078125 
L 50.140625 0 
L 8.984375 0 
L 8.984375 71.09375 
L 15.046875 71.09375 
z
" id="Roboto-Light-76"/>
    </defs>
    <g transform="translate(509.542811 558.57342)scale(0.26 -0.26)">
     <use xlink:href="#Roboto-Light-83"/>
     <use x="59.228516" xlink:href="#Roboto-Light-81"/>
     <use x="126.904297" xlink:href="#Roboto-Light-76"/>
    </g>
   </g>
   <g id="text_3">
    <!-- C / JAVA -->
    <defs>
     <path d="M 59.328125 22.171875 
Q 58.109375 10.9375 51.296875 4.96875 
Q 44.484375 -0.984375 33.15625 -0.984375 
Q 25.25 -0.984375 19.171875 2.96875 
Q 13.09375 6.9375 9.765625 14.1875 
Q 6.453125 21.4375 6.390625 30.765625 
L 6.390625 39.984375 
Q 6.390625 49.46875 9.703125 56.78125 
Q 13.03125 64.109375 19.25 68.09375 
Q 25.484375 72.078125 33.59375 72.078125 
Q 45.015625 72.078125 51.625 65.890625 
Q 58.25 59.71875 59.328125 48.828125 
L 53.265625 48.828125 
Q 51.03125 66.9375 33.59375 66.9375 
Q 23.921875 66.9375 18.1875 59.703125 
Q 12.453125 52.484375 12.453125 39.75 
L 12.453125 31.0625 
Q 12.453125 18.75 18.046875 11.421875 
Q 23.640625 4.109375 33.15625 4.109375 
Q 42.578125 4.109375 47.359375 8.625 
Q 52.15625 13.140625 53.265625 22.171875 
z
" id="Roboto-Light-67"/>
     <path id="Roboto-Light-32"/>
     <path d="M 6.78125 -6.109375 
L 1.46875 -6.109375 
L 31.15625 71.09375 
L 36.421875 71.09375 
z
" id="Roboto-Light-47"/>
     <path d="M 40.375 71.09375 
L 46.4375 71.09375 
L 46.4375 21.140625 
Q 46.4375 11.03125 40.59375 5.015625 
Q 34.765625 -0.984375 24.953125 -0.984375 
Q 14.59375 -0.984375 9.03125 4.4375 
Q 3.46875 9.859375 3.46875 19.578125 
L 9.46875 19.578125 
Q 9.46875 11.859375 13.515625 7.984375 
Q 17.578125 4.109375 24.953125 4.109375 
Q 31.734375 4.109375 36 8.59375 
Q 40.28125 13.09375 40.375 20.796875 
z
" id="Roboto-Light-74"/>
     <path d="M 47.359375 19.921875 
L 15.09375 19.921875 
L 7.765625 0 
L 1.46875 0 
L 28.375 71.09375 
L 34.078125 71.09375 
L 60.984375 0 
L 54.734375 0 
z
M 16.9375 25.046875 
L 45.453125 25.046875 
L 31.203125 63.765625 
z
" id="Roboto-Light-65"/>
     <path d="M 30.421875 8.796875 
L 30.8125 7.28125 
L 31.25 8.796875 
L 53.609375 71.09375 
L 60.203125 71.09375 
L 33.734375 0 
L 27.984375 0 
L 1.515625 71.09375 
L 8.0625 71.09375 
z
" id="Roboto-Light-86"/>
    </defs>
    <g transform="translate(675.18 306.089377)scale(0.26 -0.26)">
     <use xlink:href="#Roboto-Light-67"/>
     <use x="64.941406" xlink:href="#Roboto-Light-32"/>
     <use x="89.257812" xlink:href="#Roboto-Light-47"/>
     <use x="128.955078" xlink:href="#Roboto-Light-32"/>
     <use x="153.271484" xlink:href="#Roboto-Light-74"/>
     <use x="208.300781" xlink:href="#Roboto-Light-65"/>
     <use x="270.751953" xlink:href="#Roboto-Light-86"/>
     <use x="332.421875" xlink:href="#Roboto-Light-65"/>
    </g>
   </g>
   <g id="text_4">
    <!-- MATLAB -->
    <defs>
     <path d="M 16.9375 71.09375 
L 43.171875 8.34375 
L 69.484375 71.09375 
L 77.484375 71.09375 
L 77.484375 0 
L 71.484375 0 
L 71.484375 30.953125 
L 71.96875 62.703125 
L 45.515625 0 
L 40.875 0 
L 14.5 62.453125 
L 14.984375 31.15625 
L 14.984375 0 
L 8.984375 0 
L 8.984375 71.09375 
z
" id="Roboto-Light-77"/>
     <path d="M 8.984375 0 
L 8.984375 71.09375 
L 29.984375 71.09375 
Q 41.40625 71.09375 47.3125 66.375 
Q 53.21875 61.671875 53.21875 52.484375 
Q 53.21875 46.96875 50.21875 42.890625 
Q 47.21875 38.8125 42 37.0625 
Q 48.1875 35.6875 51.96875 30.953125 
Q 55.765625 26.21875 55.765625 20.015625 
Q 55.765625 10.59375 49.6875 5.296875 
Q 43.609375 0 32.765625 0 
z
M 14.984375 34.1875 
L 14.984375 5.078125 
L 33.015625 5.078125 
Q 40.71875 5.078125 45.234375 9 
Q 49.75 12.9375 49.75 19.921875 
Q 49.75 26.515625 45.421875 30.34375 
Q 41.109375 34.1875 33.5 34.1875 
z
M 14.984375 39.203125 
L 31.390625 39.203125 
Q 38.921875 39.359375 43.046875 42.75 
Q 47.171875 46.140625 47.171875 52.640625 
Q 47.171875 59.46875 42.890625 62.71875 
Q 38.625 65.96875 29.984375 65.96875 
L 14.984375 65.96875 
z
" id="Roboto-Light-66"/>
    </defs>
    <g transform="translate(482.823752 53.605332)scale(0.26 -0.26)">
     <use xlink:href="#Roboto-Light-77"/>
     <use x="86.523438" xlink:href="#Roboto-Light-65"/>
     <use x="148.974609" xlink:href="#Roboto-Light-84"/>
     <use x="208.691406" xlink:href="#Roboto-Light-76"/>
     <use x="261.376953" xlink:href="#Roboto-Light-65"/>
     <use x="323.828125" xlink:href="#Roboto-Light-66"/>
    </g>
   </g>
   <g id="text_5">
    <!-- R -->
    <defs>
     <path d="M 35.546875 29.59375 
L 14.890625 29.59375 
L 14.890625 0 
L 8.84375 0 
L 8.84375 71.09375 
L 31.9375 71.09375 
Q 43.3125 71.09375 49.703125 65.578125 
Q 56.109375 60.0625 56.109375 50.140625 
Q 56.109375 43.3125 52.09375 38.078125 
Q 48.09375 32.859375 41.359375 30.859375 
L 59.125 0.640625 
L 59.125 0 
L 52.734375 0 
z
M 14.890625 34.71875 
L 33.296875 34.71875 
Q 40.875 34.71875 45.453125 39.015625 
Q 50.046875 43.3125 50.046875 50.140625 
Q 50.046875 57.671875 45.265625 61.8125 
Q 40.484375 65.96875 31.84375 65.96875 
L 14.890625 65.96875 
z
" id="Roboto-Light-82"/>
    </defs>
    <g transform="translate(240.057033 53.60533)scale(0.26 -0.26)">
     <use xlink:href="#Roboto-Light-82"/>
    </g>
   </g>
   <g id="text_6">
    <!-- JULIA -->
    <defs>
     <path d="M 57.953125 71.09375 
L 57.953125 22.5625 
Q 57.90625 15.375 54.78125 10.046875 
Q 51.65625 4.734375 45.96875 1.875 
Q 40.28125 -0.984375 32.90625 -0.984375 
Q 21.6875 -0.984375 14.921875 5.140625 
Q 8.15625 11.28125 7.90625 22.125 
L 7.90625 71.09375 
L 13.875 71.09375 
L 13.875 23 
Q 13.875 14.015625 19 9.0625 
Q 24.125 4.109375 32.90625 4.109375 
Q 41.703125 4.109375 46.796875 9.078125 
Q 51.90625 14.0625 51.90625 22.953125 
L 51.90625 71.09375 
z
" id="Roboto-Light-85"/>
     <path d="M 16.3125 0 
L 10.296875 0 
L 10.296875 71.09375 
L 16.3125 71.09375 
z
" id="Roboto-Light-73"/>
    </defs>
    <g transform="translate(37.77 306.089373)scale(0.26 -0.26)">
     <use xlink:href="#Roboto-Light-74"/>
     <use x="55.029297" xlink:href="#Roboto-Light-85"/>
     <use x="120.751953" xlink:href="#Roboto-Light-76"/>
     <use x="173.4375" xlink:href="#Roboto-Light-73"/>
     <use x="200.048828" xlink:href="#Roboto-Light-65"/>
    </g>
   </g>
   <g id="line2d_7">
    <path clip-path="url(#pe2e34ceb96)" d="M 251.1 534.3588 
L 530.1 534.3588 
" style="fill:none;stroke:#000000;stroke-linecap:square;stroke-linejoin:miter;stroke-width:1.5;"/>
   </g>
   <g id="line2d_8">
    <path clip-path="url(#pe2e34ceb96)" d="M 530.1 534.3588 
L 669.6 298.98 
" style="fill:none;stroke:#000000;stroke-linecap:square;stroke-linejoin:miter;stroke-width:1.5;"/>
   </g>
   <g id="line2d_9">
    <path clip-path="url(#pe2e34ceb96)" d="M 669.6 298.98 
L 530.1 63.6012 
" style="fill:none;stroke:#000000;stroke-linecap:square;stroke-linejoin:miter;stroke-width:1.5;"/>
   </g>
   <g id="line2d_10">
    <path clip-path="url(#pe2e34ceb96)" d="M 530.1 63.6012 
L 251.1 63.6012 
" style="fill:none;stroke:#000000;stroke-linecap:square;stroke-linejoin:miter;stroke-width:1.5;"/>
   </g>
   <g id="line2d_11">
    <path clip-path="url(#pe2e34ceb96)" d="M 251.1 63.6012 
L 111.6 298.98 
" style="fill:none;stroke:#000000;stroke-linecap:square;stroke-linejoin:miter;stroke-width:1.5;"/>
   </g>
   <g id="line2d_12">
    <path clip-path="url(#pe2e34ceb96)" d="M 111.6 298.98 
L 251.1 534.3588 
" style="fill:none;stroke:#000000;stroke-linecap:square;stroke-linejoin:miter;stroke-width:1.5;"/>
   </g>
  </g>
 </g>
 <defs>
  <clipPath id="pe2e34ceb96">
   <rect height="597.96" width="781.2" x="0" y="0"/>
  </clipPath>
 </defs>
</svg>
