<?xml version="1.0" encoding="utf-8" standalone="no"?>
<!DOCTYPE svg PUBLIC "-//W3C//DTD SVG 1.1//EN"
  "http://www.w3.org/Graphics/SVG/1.1/DTD/svg11.dtd">
<!-- Created with matplotlib (https://matplotlib.org/) -->
<svg height="625.14pt" version="1.1" viewBox="0 0 864.9 625.14" width="864.9pt" xmlns="http://www.w3.org/2000/svg" xmlns:xlink="http://www.w3.org/1999/xlink">
 <defs>
  <style type="text/css">
*{stroke-linecap:butt;stroke-linejoin:round;}
  </style>
 </defs>
 <g id="figure_1">
  <g id="patch_1">
   <path d="M 0 625.14 
L 864.9 625.14 
L 864.9 0 
L 0 0 
z
" style="fill:#ffffff;"/>
  </g>
  <g id="axes_1">
   <g id="patch_2">
    <path clip-path="url(#p4ae78f9a8d)" d="M 0 625.14 
L 864.9 625.14 
L 864.9 0 
L 0 0 
z
" style="fill:#f2f2f2;stroke:#f2f2f2;stroke-linejoin:miter;"/>
   </g>
   <g id="patch_3">
    <path clip-path="url(#p4ae78f9a8d)" d="M 0 625.14 
L 864.9 625.14 
L 864.9 0 
L 0 0 
z
" style="fill:#f2f2f2;stroke:#f2f2f2;stroke-linejoin:miter;"/>
   </g>
   <g id="patch_4">
    <path clip-path="url(#p4ae78f9a8d)" d="M 0 625.14 
L 864.9 625.14 
L 864.9 0 
L 0 0 
z
" style="fill:#f2f2f2;stroke:#f2f2f2;stroke-linejoin:miter;"/>
   </g>
   <g id="patch_5">
    <path clip-path="url(#p4ae78f9a8d)" d="M 0 625.14 
L 864.9 625.14 
L 864.9 0 
L 0 0 
z
" style="fill:#f2f2f2;stroke:#f2f2f2;stroke-linejoin:miter;"/>
   </g>
   <g id="patch_6">
    <path clip-path="url(#p4ae78f9a8d)" d="M 0 625.14 
L 864.9 625.14 
L 864.9 0 
L 0 0 
z
" style="fill:#f2f2f2;stroke:#f2f2f2;stroke-linejoin:miter;"/>
   </g>
   <g id="patch_7">
    <path clip-path="url(#p4ae78f9a8d)" d="M 432.45 312.57 
L 268.398 532.4562 
L 596.502 532.4562 
z
" style="fill:#f2f2f2;stroke:#f2f2f2;stroke-linejoin:miter;"/>
   </g>
   <g id="patch_8">
    <path clip-path="url(#p4ae78f9a8d)" d="M 432.45 312.57 
L 596.502 532.4562 
L 697.779 228.5838 
z
" style="fill:#f2f2f2;stroke:#f2f2f2;stroke-linejoin:miter;"/>
   </g>
   <g id="patch_9">
    <path clip-path="url(#p4ae78f9a8d)" d="M 432.45 312.57 
L 697.779 228.5838 
L 432.45 40.77 
z
" style="fill:#f2f2f2;stroke:#f2f2f2;stroke-linejoin:miter;"/>
   </g>
   <g id="patch_10">
    <path clip-path="url(#p4ae78f9a8d)" d="M 432.45 312.57 
L 432.45 40.77 
L 167.121 228.5838 
z
" style="fill:#f2f2f2;stroke:#f2f2f2;stroke-linejoin:miter;"/>
   </g>
   <g id="patch_11">
    <path clip-path="url(#p4ae78f9a8d)" d="M 432.45 312.57 
L 167.121 228.5838 
L 268.398 532.4562 
z
" style="fill:#f2f2f2;stroke:#f2f2f2;stroke-linejoin:miter;"/>
   </g>
   <g id="patch_12">
    <path clip-path="url(#p4ae78f9a8d)" d="M 432.45 312.57 
L 287.756136 506.509628 
L 561.066768 484.960781 
z
" style="fill:#3c4a1c;stroke:#3c4a1c;stroke-linejoin:miter;"/>
   </g>
   <g id="patch_13">
    <path clip-path="url(#p4ae78f9a8d)" d="M 432.45 312.57 
L 561.066768 484.960781 
L 614.465694 254.955467 
z
" style="fill:#3c4a1c;stroke:#3c4a1c;stroke-linejoin:miter;"/>
   </g>
   <g id="patch_14">
    <path clip-path="url(#p4ae78f9a8d)" d="M 432.45 312.57 
L 614.465694 254.955467 
L 432.45 112.797 
z
" style="fill:#3c4a1c;stroke:#3c4a1c;stroke-linejoin:miter;"/>
   </g>
   <g id="patch_15">
    <path clip-path="url(#p4ae78f9a8d)" d="M 432.45 312.57 
L 432.45 112.797 
L 354.443274 287.878057 
z
" style="fill:#3c4a1c;stroke:#3c4a1c;stroke-linejoin:miter;"/>
   </g>
   <g id="patch_16">
    <path clip-path="url(#p4ae78f9a8d)" d="M 432.45 312.57 
L 354.443274 287.878057 
L 287.756136 506.509628 
z
" style="fill:#3c4a1c;stroke:#3c4a1c;stroke-linejoin:miter;"/>
   </g>
   <g id="line2d_1">
    <path clip-path="url(#p4ae78f9a8d)" d="M 432.45 312.57 
L 284.8032 510.46758 
" style="fill:none;stroke:#f2f2f2;stroke-linecap:square;stroke-width:1.5;"/>
   </g>
   <g id="line2d_2">
    <path clip-path="url(#p4ae78f9a8d)" d="M 432.45 312.57 
L 563.6916 488.47896 
" style="fill:none;stroke:#f2f2f2;stroke-linecap:square;stroke-width:1.5;"/>
   </g>
   <g id="line2d_3">
    <path clip-path="url(#p4ae78f9a8d)" d="M 432.45 312.57 
L 618.1803 253.77966 
" style="fill:none;stroke:#f2f2f2;stroke-linecap:square;stroke-width:1.5;"/>
   </g>
   <g id="line2d_4">
    <path clip-path="url(#p4ae78f9a8d)" d="M 432.45 312.57 
L 432.45 108.72 
" style="fill:none;stroke:#f2f2f2;stroke-linecap:square;stroke-width:1.5;"/>
   </g>
   <g id="line2d_5">
    <path clip-path="url(#p4ae78f9a8d)" d="M 432.45 312.57 
L 352.8513 287.37414 
" style="fill:none;stroke:#f2f2f2;stroke-linecap:square;stroke-width:1.5;"/>
   </g>
   <g id="text_1">
    <!-- EXCEL -->
    <defs>
     <path d="M 48.25 34.078125 
L 14.984375 34.078125 
L 14.984375 5.078125 
L 53.21875 5.078125 
L 53.21875 0 
L 8.984375 0 
L 8.984375 71.09375 
L 52.984375 71.09375 
L 52.984375 65.96875 
L 14.984375 65.96875 
L 14.984375 39.15625 
L 48.25 39.15625 
z
" id="Roboto-Light-69"/>
     <path d="M 30.609375 41.015625 
L 50.640625 71.09375 
L 57.8125 71.09375 
L 34.28125 36.03125 
L 58.546875 0 
L 51.3125 0 
L 30.609375 31.0625 
L 9.8125 0 
L 2.6875 0 
L 27 36.03125 
L 3.421875 71.09375 
L 10.59375 71.09375 
z
" id="Roboto-Light-88"/>
     <path d="M 59.328125 22.171875 
Q 58.109375 10.9375 51.296875 4.96875 
Q 44.484375 -0.984375 33.15625 -0.984375 
Q 25.25 -0.984375 19.171875 2.96875 
Q 13.09375 6.9375 9.765625 14.1875 
Q 6.453125 21.4375 6.390625 30.765625 
L 6.390625 39.984375 
Q 6.390625 49.46875 9.703125 56.78125 
Q 13.03125 64.109375 19.25 68.09375 
Q 25.484375 72.078125 33.59375 72.078125 
Q 45.015625 72.078125 51.625 65.890625 
Q 58.25 59.71875 59.328125 48.828125 
L 53.265625 48.828125 
Q 51.03125 66.9375 33.59375 66.9375 
Q 23.921875 66.9375 18.1875 59.703125 
Q 12.453125 52.484375 12.453125 39.75 
L 12.453125 31.0625 
Q 12.453125 18.75 18.046875 11.421875 
Q 23.640625 4.109375 33.15625 4.109375 
Q 42.578125 4.109375 47.359375 8.625 
Q 52.15625 13.140625 53.265625 22.171875 
z
" id="Roboto-Light-67"/>
     <path d="M 15.046875 5.078125 
L 50.140625 5.078125 
L 50.140625 0 
L 8.984375 0 
L 8.984375 71.09375 
L 15.046875 71.09375 
z
" id="Roboto-Light-76"/>
    </defs>
    <g transform="translate(227.140884 556.358634)scale(0.26 -0.26)">
     <use xlink:href="#Roboto-Light-69"/>
     <use x="56.884766" xlink:href="#Roboto-Light-88"/>
     <use x="118.066406" xlink:href="#Roboto-Light-67"/>
     <use x="183.007812" xlink:href="#Roboto-Light-69"/>
     <use x="239.892578" xlink:href="#Roboto-Light-76"/>
    </g>
   </g>
   <g id="text_2">
    <!-- POWERPOINT -->
    <defs>
     <path d="M 14.984375 28.953125 
L 14.984375 0 
L 8.984375 0 
L 8.984375 71.09375 
L 33.203125 71.09375 
Q 44.28125 71.09375 50.703125 65.421875 
Q 57.125 59.765625 57.125 49.859375 
Q 57.125 39.84375 50.953125 34.390625 
Q 44.78125 28.953125 33.0625 28.953125 
z
M 14.984375 34.03125 
L 33.203125 34.03125 
Q 41.9375 34.03125 46.53125 38.171875 
Q 51.125 42.328125 51.125 49.75 
Q 51.125 57.125 46.5625 61.5 
Q 42 65.875 33.59375 65.96875 
L 14.984375 65.96875 
z
" id="Roboto-Light-80"/>
     <path d="M 61.53125 31.6875 
Q 61.53125 21.875 58.125 14.453125 
Q 54.734375 7.03125 48.4375 3.015625 
Q 42.140625 -0.984375 33.890625 -0.984375 
Q 21.4375 -0.984375 13.765625 7.921875 
Q 6.109375 16.84375 6.109375 31.984375 
L 6.109375 39.3125 
Q 6.109375 49.03125 9.546875 56.515625 
Q 12.984375 64.015625 19.28125 68.046875 
Q 25.59375 72.078125 33.796875 72.078125 
Q 42 72.078125 48.265625 68.109375 
Q 54.546875 64.15625 57.953125 56.921875 
Q 61.375 49.703125 61.53125 40.1875 
z
M 55.515625 39.40625 
Q 55.515625 52.25 49.703125 59.515625 
Q 43.890625 66.796875 33.796875 66.796875 
Q 23.875 66.796875 17.984375 59.5 
Q 12.109375 52.203125 12.109375 39.109375 
L 12.109375 31.6875 
Q 12.109375 19.046875 17.96875 11.640625 
Q 23.828125 4.25 33.890625 4.25 
Q 44.09375 4.25 49.796875 11.546875 
Q 55.515625 18.84375 55.515625 31.890625 
z
" id="Roboto-Light-79"/>
     <path d="M 22.125 19.1875 
L 24.3125 8.15625 
L 27 18.703125 
L 42.4375 71.09375 
L 47.859375 71.09375 
L 63.09375 18.703125 
L 65.71875 8.0625 
L 68.0625 19.1875 
L 80.90625 71.09375 
L 87.0625 71.09375 
L 68.84375 0 
L 63.09375 0 
L 46.96875 55.609375 
L 45.171875 62.640625 
L 43.40625 55.609375 
L 26.90625 0 
L 21.140625 0 
L 2.984375 71.09375 
L 9.125 71.09375 
z
" id="Roboto-Light-87"/>
     <path d="M 35.546875 29.59375 
L 14.890625 29.59375 
L 14.890625 0 
L 8.84375 0 
L 8.84375 71.09375 
L 31.9375 71.09375 
Q 43.3125 71.09375 49.703125 65.578125 
Q 56.109375 60.0625 56.109375 50.140625 
Q 56.109375 43.3125 52.09375 38.078125 
Q 48.09375 32.859375 41.359375 30.859375 
L 59.125 0.640625 
L 59.125 0 
L 52.734375 0 
z
M 14.890625 34.71875 
L 33.296875 34.71875 
Q 40.875 34.71875 45.453125 39.015625 
Q 50.046875 43.3125 50.046875 50.140625 
Q 50.046875 57.671875 45.265625 61.8125 
Q 40.484375 65.96875 31.84375 65.96875 
L 14.890625 65.96875 
z
" id="Roboto-Light-82"/>
     <path d="M 16.3125 0 
L 10.296875 0 
L 10.296875 71.09375 
L 16.3125 71.09375 
z
" id="Roboto-Light-73"/>
     <path d="M 61.921875 0 
L 55.90625 0 
L 15.046875 60.84375 
L 15.046875 0 
L 8.984375 0 
L 8.984375 71.09375 
L 15.046875 71.09375 
L 55.953125 10.203125 
L 55.953125 71.09375 
L 61.921875 71.09375 
z
" id="Roboto-Light-78"/>
     <path d="M 57.234375 65.96875 
L 32.859375 65.96875 
L 32.859375 0 
L 26.859375 0 
L 26.859375 65.96875 
L 2.546875 65.96875 
L 2.546875 71.09375 
L 57.234375 71.09375 
z
" id="Roboto-Light-84"/>
    </defs>
    <g transform="translate(518.360207 556.358637)scale(0.26 -0.26)">
     <use xlink:href="#Roboto-Light-80"/>
     <use x="61.572266" xlink:href="#Roboto-Light-79"/>
     <use x="129.248047" xlink:href="#Roboto-Light-87"/>
     <use x="218.896484" xlink:href="#Roboto-Light-69"/>
     <use x="275.78125" xlink:href="#Roboto-Light-82"/>
     <use x="339.257812" xlink:href="#Roboto-Light-80"/>
     <use x="400.830078" xlink:href="#Roboto-Light-79"/>
     <use x="468.505859" xlink:href="#Roboto-Light-73"/>
     <use x="495.117188" xlink:href="#Roboto-Light-78"/>
     <use x="566.113281" xlink:href="#Roboto-Light-84"/>
    </g>
   </g>
   <g id="text_3">
    <!-- WORD -->
    <defs>
     <path d="M 8.984375 0 
L 8.984375 71.09375 
L 28.859375 71.09375 
Q 37.59375 71.09375 44.53125 67.109375 
Q 51.46875 63.140625 55.34375 55.71875 
Q 59.234375 48.296875 59.234375 38.8125 
L 59.234375 32.28125 
Q 59.234375 22.75 55.375 15.375 
Q 51.515625 8.015625 44.5 4 
Q 37.5 0 28.421875 0 
z
M 14.984375 65.96875 
L 14.984375 5.078125 
L 28.46875 5.078125 
Q 39.703125 5.078125 46.484375 12.515625 
Q 53.265625 19.96875 53.265625 32.671875 
L 53.265625 38.921875 
Q 53.265625 51.171875 46.578125 58.546875 
Q 39.890625 65.921875 28.953125 65.96875 
z
" id="Roboto-Light-68"/>
    </defs>
    <g transform="translate(703.101664 234.008742)scale(0.26 -0.26)">
     <use xlink:href="#Roboto-Light-87"/>
     <use x="89.648438" xlink:href="#Roboto-Light-79"/>
     <use x="157.324219" xlink:href="#Roboto-Light-82"/>
     <use x="220.800781" xlink:href="#Roboto-Light-68"/>
    </g>
   </g>
   <g id="text_4">
    <!-- LATEX -->
    <defs>
     <path d="M 47.359375 19.921875 
L 15.09375 19.921875 
L 7.765625 0 
L 1.46875 0 
L 28.375 71.09375 
L 34.078125 71.09375 
L 60.984375 0 
L 54.734375 0 
z
M 16.9375 25.046875 
L 45.453125 25.046875 
L 31.203125 63.765625 
z
" id="Roboto-Light-65"/>
    </defs>
    <g transform="translate(394.368127 30.05275)scale(0.26 -0.26)">
     <use xlink:href="#Roboto-Light-76"/>
     <use x="52.685547" xlink:href="#Roboto-Light-65"/>
     <use x="115.136719" xlink:href="#Roboto-Light-84"/>
     <use x="174.853516" xlink:href="#Roboto-Light-69"/>
     <use x="231.738281" xlink:href="#Roboto-Light-88"/>
    </g>
   </g>
   <g id="text_5">
    <!-- TABLEU -->
    <defs>
     <path d="M 8.984375 0 
L 8.984375 71.09375 
L 29.984375 71.09375 
Q 41.40625 71.09375 47.3125 66.375 
Q 53.21875 61.671875 53.21875 52.484375 
Q 53.21875 46.96875 50.21875 42.890625 
Q 47.21875 38.8125 42 37.0625 
Q 48.1875 35.6875 51.96875 30.953125 
Q 55.765625 26.21875 55.765625 20.015625 
Q 55.765625 10.59375 49.6875 5.296875 
Q 43.609375 0 32.765625 0 
z
M 14.984375 34.1875 
L 14.984375 5.078125 
L 33.015625 5.078125 
Q 40.71875 5.078125 45.234375 9 
Q 49.75 12.9375 49.75 19.921875 
Q 49.75 26.515625 45.421875 30.34375 
Q 41.109375 34.1875 33.5 34.1875 
z
M 14.984375 39.203125 
L 31.390625 39.203125 
Q 38.921875 39.359375 43.046875 42.75 
Q 47.171875 46.140625 47.171875 52.640625 
Q 47.171875 59.46875 42.890625 62.71875 
Q 38.625 65.96875 29.984375 65.96875 
L 14.984375 65.96875 
z
" id="Roboto-Light-66"/>
     <path d="M 57.953125 71.09375 
L 57.953125 22.5625 
Q 57.90625 15.375 54.78125 10.046875 
Q 51.65625 4.734375 45.96875 1.875 
Q 40.28125 -0.984375 32.90625 -0.984375 
Q 21.6875 -0.984375 14.921875 5.140625 
Q 8.15625 11.28125 7.90625 22.125 
L 7.90625 71.09375 
L 13.875 71.09375 
L 13.875 23 
Q 13.875 14.015625 19 9.0625 
Q 24.125 4.109375 32.90625 4.109375 
Q 41.703125 4.109375 46.796875 9.078125 
Q 51.90625 14.0625 51.90625 22.953125 
L 51.90625 71.09375 
z
" id="Roboto-Light-85"/>
    </defs>
    <g transform="translate(68.523337 234.008738)scale(0.26 -0.26)">
     <use xlink:href="#Roboto-Light-84"/>
     <use x="59.716797" xlink:href="#Roboto-Light-65"/>
     <use x="122.167969" xlink:href="#Roboto-Light-66"/>
     <use x="183.447266" xlink:href="#Roboto-Light-76"/>
     <use x="236.132812" xlink:href="#Roboto-Light-69"/>
     <use x="293.017578" xlink:href="#Roboto-Light-85"/>
    </g>
   </g>
   <g id="line2d_6">
    <path clip-path="url(#p4ae78f9a8d)" d="M 268.398 532.4562 
L 596.502 532.4562 
" style="fill:none;stroke:#000000;stroke-linecap:square;stroke-linejoin:miter;stroke-width:1.5;"/>
   </g>
   <g id="line2d_7">
    <path clip-path="url(#p4ae78f9a8d)" d="M 596.502 532.4562 
L 697.779 228.5838 
" style="fill:none;stroke:#000000;stroke-linecap:square;stroke-linejoin:miter;stroke-width:1.5;"/>
   </g>
   <g id="line2d_8">
    <path clip-path="url(#p4ae78f9a8d)" d="M 697.779 228.5838 
L 432.45 40.77 
" style="fill:none;stroke:#000000;stroke-linecap:square;stroke-linejoin:miter;stroke-width:1.5;"/>
   </g>
   <g id="line2d_9">
    <path clip-path="url(#p4ae78f9a8d)" d="M 432.45 40.77 
L 167.121 228.5838 
" style="fill:none;stroke:#000000;stroke-linecap:square;stroke-linejoin:miter;stroke-width:1.5;"/>
   </g>
   <g id="line2d_10">
    <path clip-path="url(#p4ae78f9a8d)" d="M 167.121 228.5838 
L 268.398 532.4562 
" style="fill:none;stroke:#000000;stroke-linecap:square;stroke-linejoin:miter;stroke-width:1.5;"/>
   </g>
  </g>
 </g>
 <defs>
  <clipPath id="p4ae78f9a8d">
   <rect height="625.14" width="864.9" x="0" y="0"/>
  </clipPath>
 </defs>
</svg>
