<svg xmlns="http://www.w3.org/2000/svg" viewBox="-9.56 0 736.62 736.62" width="736" height="736">
  <style>
    .mark { fill: #0a0a0a; }
  </style>
  <g class="mark"><path d="M 370.05869,1.4511657 C 294.93661,14.876597 205.63485,75.96985 172.75009,136.45972 c -26.09663,47.66783 -2.11187,93.37463 48.87461,93.37463 22.62713,0 44.80171,-8.29662 88.09496,-33.18646 49.02546,-28.2085 64.41191,-33.78985 91.26277,-33.9407 50.83562,0 76.32885,40.2763 49.02546,77.3848 -17.04579,23.38136 -45.85766,34.09154 -127.46618,47.81867 -81.45768,13.57627 -113.58821,22.77798 -157.6357,44.50002 -162.6136563,80.70344 -179.810271,264.73745 -33.94069,362.78836 39.82376,26.70002 81.00514,39.22036 129.72888,39.06952 56.71869,-0.15085 98.956,-14.02882 160.65264,-52.9475 53.55089,-33.639 69.23903,-34.84577 100.31362,-7.39152 6.18476,5.4305 17.04578,15.08475 24.13562,21.2695 45.7068,40.72884 98.50345,55.66274 135.31026,38.46612 33.94068,-15.68815 45.10341,-60.33901 20.81696,-82.8153 -9.05086,-8.29662 -16.44239,-11.76611 -34.84579,-15.98984 -53.85257,-12.82205 -85.07802,-46.3102 -97.44752,-104.83904 -7.39152,-34.69494 -3.92203,-76.02717 13.87798,-166.68655 C 611.8673,217.76655 611.8673,160.74618 583.05542,103.7258 555.90286,50.024076 502.95537,11.708799 441.86211,1.4511657 c -17.8,-3.0169513 -55.05934,-3.0169513 -71.80342,0 m 66.37292,38.4661253 c 59.28308,11.011871 106.64921,54.90851 122.4882,113.739049 5.58136,20.66611 6.0339,62.45088 0.75425,81.15598 -9.65424,34.69494 -35.90172,69.54073 -68.63565,90.81023 -29.41527,19.00678 -57.47291,29.41527 -113.28649,42.23731 -76.63057,17.34747 -108.15771,29.56612 -141.49502,54.60681 -104.53735,78.74243 -69.23902,212.39335 56.1153,212.39335 46.31019,0 84.92717,-15.68814 124.44922,-50.23223 58.52885,-51.28817 82.06107,-128.82381 48.27121,-158.38993 -13.57627,-12.0678 -34.09154,-16.74408 -59.73561,-13.87797 -103.17973,11.61526 -168.64758,55.21021 -168.79841,112.53227 -0.15085,46.15936 52.64578,74.66954 106.34751,57.32207 51.43901,-16.44239 94.58143,-76.63056 77.98819,-108.76109 -7.69323,-15.2356 -29.41527,-23.68307 -49.1763,-19.30848 -11.31356,2.41356 -7.39153,4.22373 9.35255,4.22373 41.03054,0 51.43901,30.1695 24.28646,70.7475 -36.05258,54.00342 -110.72211,70.89835 -147.37806,33.63901 -24.739,-25.19155 -21.8729,-61.69665 7.08983,-91.41362 29.71698,-30.62206 93.52548,-53.24918 150.9984,-53.55089 l 23.38137,-0.15084 10.10678,4.97797 c 28.81188,14.17967 33.9407,48.42206 13.57627,91.26277 -32.88475,69.08817 -108.91192,117.96277 -176.18993,113.5882 -100.76615,-6.78814 -136.81873,-106.04583 -64.26105,-176.94418 31.97968,-31.37628 66.82546,-45.7068 154.92043,-63.80851 81.30683,-16.59323 114.94583,-30.92374 155.52382,-66.22207 23.38138,-20.36442 23.23052,-20.81697 9.05085,53.40003 -7.69322,40.42715 -12.67118,74.21699 -14.33051,99.10684 -7.39152,109.36447 42.23731,185.99502 130.93567,201.68317 27.75595,4.82712 36.05257,12.82205 32.73392,30.92374 -3.77119,20.06273 -41.93563,29.56612 -74.06616,18.40341 -27.15254,-9.35255 -46.15933,-21.87289 -75.87631,-49.62884 -47.06443,-44.19834 -63.80851,-45.25426 -130.93567,-7.69323 -50.98647,28.35934 -81.15599,38.01359 -124.29838,39.37122 -61.09326,1.96102 -113.13566,-17.64918 -156.57975,-58.9814 -95.637347,-91.11192 -66.825472,-223.25437 62.14918,-285.25272 38.0136,-18.25254 72.70853,-28.05764 147.98146,-42.23731 76.93224,-14.33052 112.38143,-32.58306 128.8238,-65.92038 25.94577,-52.49495 -9.35254,-105.29158 -70.29496,-105.29158 -27.15257,0 -45.25426,5.27966 -95.63734,28.05764 -57.47291,25.94578 -78.89327,29.41527 -94.27972,15.2356 -16.1407,-14.78306 -5.43052,-41.78477 30.47121,-76.47971 60.64071,-58.679689 134.70686,-86.88818 197.45944,-75.272919"/><path d="m 385.89768,87.585109 c -33.03561,5.128817 -62.75258,18.252551 -96.24073,42.539021 -14.17969,10.25763 -24.4373,18.85594 -24.4373,20.51526 0,2.41356 4.67626,-0.3017 15.68814,-8.9 64.1102,-50.081391 122.48819,-63.205131 172.11705,-38.61697 72.55767,35.90171 87.03903,131.9916 28.66103,190.97299 -28.05764,28.2085 -49.77969,36.95764 -135.00856,54.00342 -47.51698,9.5034 -77.0831,17.34747 -100.31361,26.54917 -106.95092,42.539 -154.015351,132.59499 -110.57127,211.48826 44.19835,80.10006 145.11536,108.15769 241.20523,67.12716 53.2492,-22.77798 99.55939,-62.45089 119.92381,-102.57634 6.63729,-13.12373 4.97797,-16.44238 -1.96101,-3.92203 -26.39832,47.66783 -81.15598,90.96107 -138.6289,109.81702 -33.639,11.01187 -70.7475,14.48136 -98.6543,9.35254 C 164.45348,648.88885 103.96361,564.71591 130.06023,488.38705 153.7433,418.69548 222.68063,375.10054 345.92307,352.02086 414.8604,339.19882 446.99093,328.18695 471.72993,309.02932 520.15199,271.76997 535.53844,204.49196 507.93334,151.24278 485.15537,107.34614 432.9621,80.193589 385.89768,87.585109"/></g>
</svg>
